<svg viewBox="15.236 20.837 93.099 86.103" xmlns="http://www.w3.org/2000/svg">
  <path fill="#AD66EE" transform="matrix(0.125, 0, 0, 0.125, 0, 0)" d="M264.06 254.326C275.57 243.595 288.886 234.268 302.083 225.752Q305.725 223.407 309.438 221.177Q313.151 218.947 316.932 216.834Q320.713 214.72 324.558 212.726Q328.403 210.732 332.309 208.859Q336.214 206.986 340.176 205.236Q344.138 203.486 348.153 201.86Q352.168 200.235 356.232 198.735Q360.295 197.236 364.404 195.864Q368.512 194.492 372.661 193.249Q376.811 192.006 380.997 190.893Q385.183 189.781 389.401 188.799Q393.62 187.818 397.868 186.968Q402.115 186.119 406.387 185.403Q410.658 184.686 414.951 184.104Q419.243 183.521 423.551 183.073Q427.859 182.625 432.179 182.311C443.968 181.502 455.821 181.883 467.63 181.901L524.224 182.006C548.817 182.06 576.53 180.878 600.67 183.228C611.423 184.275 621.932 186.327 632.482 188.609C630.526 189.794 629.77 190.391 627.48 189.828C627.173 189.753 626.868 189.67 626.562 189.591C625.306 189.922 624.362 190.314 623.205 190.908C617.944 193.607 612.064 190.051 607.175 191.377C607.655 192.949 609.715 193.699 610.926 194.856C608.171 194.415 605.466 193.675 602.711 193.276C600.098 195.548 598.254 197.767 596.528 200.794L600.445 204.909C596.619 210.126 595.479 212.611 596.503 219.2Q596.685 220.361 596.895 221.518C597.66 219.453 598.297 216.689 600.029 215.26L601.605 214.854L602.246 215.262C601.788 222.298 598.363 220.155 599.82 231.363C589.448 229.27 579.095 227.275 568.546 226.318C548.391 224.488 527.794 225.527 507.58 225.882C492.637 226.145 477.522 225.273 462.618 226.177C413.143 229.175 367.564 247.727 326.55 274.974Q322.661 277.592 318.899 280.388C314.223 276.316 272.073 257.438 264.06 254.326Z"/>
  <path fill="#8C1DEB" transform="matrix(0.125, 0, 0, 0.125, 0, 0)" d="M197.198 363.07C202.946 374.436 208.084 386.076 214.032 397.352C218.391 405.618 223.675 413.482 227.58 421.965C227.305 430.869 226.399 439.748 226.186 448.65C225.642 471.415 226.052 494.286 226.025 517.062C225.958 573.184 226.353 616.534 252.238 667.973C260.738 684.864 271.578 701.466 284.505 715.327Q285.839 716.761 287.304 718.061C283.439 720.754 279.983 724.59 276.716 727.98Q267.498 737.655 258.536 747.567C255.974 750.422 253.562 753.563 250.873 756.284C230.915 735.352 214.02 708.496 202.548 681.994C193.481 661.045 186.748 638.195 183.317 615.621C178.847 586.217 179.914 556.082 179.932 526.443C179.965 471.419 176.575 415.315 197.198 363.07Z"/>
  <path fill="#8C1DEB" transform="matrix(0.125, 0, 0, 0.125, 0, 0)" d="M632.482 188.609C705.864 204.844 763.95 247.869 804.129 310.944Q806.015 313.924 807.816 316.956Q809.617 319.988 811.332 323.07Q813.047 326.152 814.673 329.282Q816.3 332.411 817.837 335.585Q819.375 338.759 820.821 341.976Q822.268 345.192 823.623 348.448Q824.979 351.704 826.241 354.997Q827.504 358.29 828.672 361.618Q829.841 364.946 830.915 368.305Q831.989 371.664 832.968 375.053Q833.946 378.441 834.828 381.856Q835.711 385.27 836.496 388.709Q837.281 392.147 837.968 395.606Q838.656 399.065 839.245 402.543Q839.834 406.02 840.325 409.512Q840.815 413.005 841.207 416.51C842.812 432.037 842.61 447.54 842.605 463.126L842.494 523.593C842.615 561.41 844.533 599.299 836.246 636.51C820.82 705.785 780.688 761.083 720.79 799.071C681.461 824.015 634.989 839.992 588.452 843.029C562.521 844.722 536.385 843.483 510.411 843.512C470.895 843.557 438.115 844.58 398.957 835.742C369.285 829.045 339.048 817.513 312.485 802.714C321.466 797.959 336.456 794.642 346.463 791.482C357.514 787.992 368.172 783.634 378.76 778.943C405.299 789.343 431.171 797.637 459.694 800.461C477.972 802.27 496.233 802.042 514.573 802.037C567.708 802.022 605.203 798.938 653.895 775.876C670.935 767.805 687.259 758.198 701.841 746.197C744.861 710.792 775.518 668.617 790.758 614.704C794.049 603.061 797.162 590.67 798.336 578.61C801.371 555.704 801.082 533.043 801.024 509.998C800.989 495.76 801.571 481.316 800.648 467.103Q800.362 462.695 799.929 458.299Q799.496 453.903 798.917 449.524Q798.338 445.145 797.613 440.787Q796.889 436.429 796.02 432.098Q795.151 427.767 794.138 423.468Q793.125 419.168 791.97 414.904Q790.815 410.641 789.519 406.418Q788.222 402.195 786.786 398.018Q785.35 393.841 783.776 389.713Q782.201 385.586 780.491 381.514Q778.78 377.441 776.934 373.428Q775.089 369.414 773.111 365.464Q771.133 361.515 769.025 357.633Q766.917 353.751 764.68 349.942Q762.444 346.132 760.083 342.399Q757.721 338.666 755.236 335.014Q753.755 332.842 752.227 330.702Q750.7 328.562 749.128 326.455Q747.556 324.347 745.939 322.274Q744.323 320.201 742.663 318.162Q741.003 316.123 739.3 314.12Q737.597 312.117 735.852 310.15Q734.107 308.184 732.321 306.254Q730.535 304.325 728.708 302.434Q726.882 300.543 725.016 298.691Q723.149 296.839 721.244 295.028Q719.339 293.216 717.396 291.444Q715.453 289.673 713.473 287.944Q711.493 286.214 709.477 284.527Q707.461 282.84 705.409 281.195Q703.357 279.551 701.272 277.951Q699.186 276.351 697.066 274.795Q694.947 273.239 692.795 271.728Q690.643 270.218 688.46 268.753Q686.277 267.288 684.063 265.87Q681.849 264.452 679.606 263.081Q677.362 261.71 675.09 260.387Q672.818 259.064 670.519 257.79Q668.219 256.515 665.893 255.289Q663.568 254.064 661.216 252.887Q658.865 251.711 656.489 250.585Q654.113 249.459 651.714 248.384Q649.315 247.308 646.894 246.284Q644.473 245.259 642.03 244.286Q639.588 243.314 637.125 242.393Q634.663 241.472 632.181 240.603Q629.7 239.734 627.2 238.919Q624.701 238.103 622.185 237.34C614.859 235.103 607.351 232.794 599.82 231.363C598.363 220.155 601.788 222.298 602.246 215.262L601.605 214.854L600.029 215.26C598.297 216.689 597.66 219.453 596.895 221.518Q596.685 220.361 596.503 219.2C595.479 212.611 596.619 210.126 600.445 204.909L596.528 200.794C598.254 197.767 600.098 195.548 602.711 193.276C605.466 193.675 608.171 194.415 610.926 194.856C609.715 193.699 607.655 192.949 607.175 191.377C612.064 190.051 617.944 193.607 623.205 190.908C624.362 190.314 625.306 189.922 626.562 189.591C626.868 189.67 627.173 189.753 627.48 189.828C629.77 190.391 630.526 189.794 632.482 188.609Z"/>
  <path transform="matrix(0.125, 0, 0, 0.125, 0, 0)" d="M134.055 194.915C143.463 198.358 152.799 203.425 161.943 207.583Q192.951 221.67 223.79 236.121C235.97 241.916 248.144 248.545 260.59 253.686C261.82 254.194 262.716 254.685 264.06 254.326C272.073 257.438 314.223 276.316 318.899 280.388L319.318 280.631C332.067 287.917 346.319 293.528 359.602 299.893L432.456 335.052L456.009 345.968C460.415 348.005 465.209 349.884 469.355 352.408C474.315 355.427 478.857 360.541 483.116 364.513Q493.997 374.697 505.041 384.704C523.533 401.421 542.987 417.108 561.119 434.213C578.494 411.91 601.797 394.942 630.438 391.3C652.287 388.521 676.301 393.739 693.949 407.305C699.535 411.599 704.669 417.004 709.268 422.325C711.866 425.331 714.424 428.995 717.5 431.493C724.823 437.439 778.201 449.468 790.35 452.362C768.004 466.002 760.348 475.067 743.017 492.951C737.649 498.491 731.82 503.617 726.626 509.324C740.134 523.091 754.282 536.176 767.93 549.791C776.281 558.122 784.015 567.243 792.649 575.259C794.083 576.59 795.99 578.566 797.913 578.931L798.336 578.61C797.162 590.67 794.049 603.061 790.758 614.704C775.518 668.617 744.861 710.792 701.841 746.197C687.259 758.198 670.935 767.805 653.895 775.876C605.203 798.938 567.708 802.022 514.573 802.037C496.233 802.042 477.972 802.27 459.694 800.461C431.171 797.637 405.299 789.343 378.76 778.943C368.172 783.634 357.514 787.992 346.463 791.482C336.456 794.642 321.466 797.959 312.485 802.714C308.001 802.702 301.897 805.426 297.425 806.593L251.37 818.692C223.724 826.059 195.785 832.429 168.25 840.186L221.302 786.978C226.666 781.591 248.996 760.735 250.873 756.284C253.562 753.563 255.974 750.422 258.536 747.567Q267.498 737.655 276.716 727.98C279.983 724.59 283.439 720.754 287.304 718.061Q285.839 716.761 284.505 715.327C271.578 701.466 260.738 684.864 252.238 667.973C226.353 616.534 225.958 573.184 226.025 517.062C226.052 494.286 225.642 471.415 226.186 448.65C226.399 439.748 227.305 430.869 227.58 421.965C223.675 413.482 218.391 405.618 214.032 397.352C208.084 386.076 202.946 374.436 197.198 363.07C196.422 358.622 191.353 350.599 189.151 346.215C183.161 334.286 176.917 322.398 171.418 310.235C154.879 273.652 141.195 234.484 134.055 194.915ZM227.58 421.965C227.305 430.869 226.399 439.748 226.186 448.65C225.642 471.415 226.052 494.286 226.025 517.062C225.958 573.184 226.353 616.534 252.238 667.973C260.738 684.864 271.578 701.466 284.505 715.327Q285.839 716.761 287.304 718.061C289.841 716.731 306.358 698.04 309.612 694.748L373.308 630.895C384.188 619.936 395.776 609.187 405.82 597.479C354.498 580.523 292.806 528.494 265.444 482.266C260.929 474.638 256.737 466.808 252.09 459.26C247.629 452.011 242.643 445.083 238.097 437.886C235.105 433.15 231.704 425.596 227.58 421.965Z"/>
  <path fill="#EF90F6" transform="matrix(0.125, 0, 0, 0.125, 0, 0)" d="M268.83 778.066C268.977 779.674 268.848 780.518 269.834 781.827C271.086 782.145 272.318 782.472 273.551 782.863C269.371 784.123 265.019 785.045 260.783 786.121C263.568 783.553 266.178 780.771 268.83 778.066Z"/>
  <path fill="#EF90F6" transform="matrix(0.125, 0, 0, 0.125, 0, 0)" d="M235.522 387.074L251.002 391.575C246.876 393.481 246.619 396.839 243.233 399.319C240.477 395.338 237.996 391.233 235.522 387.074Z"/>
  <path fill="#EF90F6" transform="matrix(0.125, 0, 0, 0.125, 0, 0)" d="M703.417 457.67C716.715 463.495 734.133 459.614 748.385 460.07C718.852 469.104 698.479 481.679 683.593 509.663C680.382 515.698 677.468 527.468 674.68 531.829L674.183 531.191C674.669 527.912 676.108 524.598 677.257 521.489C683.518 504.545 693.375 491.087 706.503 478.887C705.9 476.485 705.242 473.913 705.103 471.432C704.924 468.236 706.212 462.5 705.021 459.747C704.744 459.106 703.865 458.251 703.417 457.67Z"/>
  <path fill="#EF90F6" transform="matrix(0.125, 0, 0, 0.125, 0, 0)" d="M175.167 243.646C209.024 260.666 244.34 274.776 277.921 292.315C277.728 292.397 277.539 292.487 277.343 292.56C276.329 292.938 275.382 293.037 274.315 293.179C272.301 295.463 270.46 308.226 269.563 311.978C268.174 317.78 266.171 323.447 264.657 329.225C262.86 336.085 261.528 343.098 260.13 350.05C259.149 354.931 257.998 359.867 257.978 364.866L257.969 365.832C257.969 366.025 257.975 366.218 257.978 366.411C211.793 330.45 192.058 299.15 175.167 243.646Z"/>
  <path fill="#AD66EE" transform="matrix(0.125, 0, 0, 0.125, 0, 0)" d="M474.939 392.083C480.454 396.211 485.434 401.177 490.501 405.839Q502.407 416.856 514.582 427.576L552.777 460.34C560.232 466.693 567.951 472.882 574.978 479.71C574.886 473.73 575.362 468.001 577.132 462.257C582.319 445.428 594.723 432.335 610.199 424.367C625.729 416.371 644.512 413.925 661.283 419.216C659.101 423.18 649.674 438.647 649.769 441.981L651.123 443.698C644.839 446.519 640.329 450.215 637.822 456.876C637.329 458.185 636.941 459.538 636.553 460.881C635.759 459.997 635.242 458.981 634.041 458.808C629.836 461.408 625.958 464.687 622.055 467.726C614.816 473.362 607.733 479.033 600.921 485.189C593.96 491.479 587.364 498.163 580.249 504.283C577.487 506.659 565.626 514.388 564.674 517.079C564.61 517.262 564.594 517.458 564.555 517.648C545.695 489.085 525.374 461.094 505.095 433.52Q497.758 423.457 490.214 413.548C484.834 406.546 479.245 399.834 474.939 392.083Z"/>
  <path fill="#AD66EE" transform="matrix(0.125, 0, 0, 0.125, 0, 0)" d="M268.83 778.066C294.747 750.293 321.331 723.302 347.741 696.011Q361.69 681.426 375.932 667.127C381.401 661.561 386.828 655.471 392.885 650.569C389.005 657.401 388.737 665.341 386.207 672.751C388.685 681.164 394.051 687.287 396.36 695C398.55 702.317 397.652 711.163 400.404 718.207C401.13 720.067 402.808 721.601 404.54 722.531C406.888 723.791 409.971 724.253 412.586 724.589C414.111 724.784 414.97 725.208 416.17 726.145C389.713 746.509 344.615 763.817 312.503 773.11C299.686 776.819 286.496 779.601 273.551 782.863C272.318 782.472 271.086 782.145 269.834 781.827C268.848 780.518 268.977 779.674 268.83 778.066Z"/>
  <path fill="#AD66EE" transform="matrix(0.125, 0, 0, 0.125, 0, 0)" d="M277.921 292.315C288.36 297.965 299.618 302.204 310.29 307.426Q337.276 320.77 364.596 333.417C373.046 337.376 381.419 341.615 390.016 345.24C385.849 345.695 383.134 346.295 380.35 349.721Q379.667 350.575 379.01 351.449C378.979 363.202 374.733 370.564 371.299 381.371C369.757 386.225 368.611 391.199 367.034 396.041C361.691 412.456 354.849 429.368 346.74 444.605C344.166 449.442 339.899 453.098 337.215 457.839C334.418 462.778 332.761 469.069 328.654 473.074Q328.169 473.541 327.671 473.994C297.887 460.538 260.678 426.797 243.233 399.319C246.619 396.839 246.876 393.481 251.002 391.575C276.214 398.681 301.755 400.006 327.619 402.806C319.958 399.626 312.104 397.049 304.496 393.691C287.938 386.382 272.759 376.81 257.978 366.411C257.975 366.218 257.969 366.025 257.969 365.832L257.978 364.866C257.998 359.867 259.149 354.931 260.13 350.05C261.528 343.098 262.86 336.085 264.657 329.225C266.171 323.447 268.174 317.78 269.563 311.978C270.46 308.226 272.301 295.463 274.315 293.179C275.382 293.037 276.329 292.938 277.343 292.56C277.539 292.487 277.728 292.397 277.921 292.315Z"/>
  <path fill="#8C1DEB" transform="matrix(0.125, 0, 0, 0.125, 0, 0)" d="M390.016 345.24C398.38 349.471 406.688 353.941 415.196 357.868C425.58 362.662 442.283 368.596 450.909 375.558C457.215 380.647 462.126 388.748 466.925 395.24Q477.584 409.65 488.09 424.172Q526.664 477.23 567.34 528.694Q574.875 538.119 582.214 547.698C586.31 553.091 590.209 558.823 594.96 563.665C588.604 551.266 579.531 539.751 571.679 528.221C569.416 524.898 566.232 521.249 564.555 517.648C564.594 517.458 564.61 517.262 564.674 517.079C565.626 514.388 577.487 506.659 580.249 504.283C587.364 498.163 593.96 491.479 600.921 485.189C607.733 479.033 614.816 473.362 622.055 467.726C625.958 464.687 629.836 461.408 634.041 458.808C635.242 458.981 635.759 459.997 636.553 460.881C636.941 459.538 637.329 458.185 637.822 456.876C640.329 450.215 644.839 446.519 651.123 443.698L649.769 441.981C649.674 438.647 659.101 423.18 661.283 419.216C675.035 424.192 685.206 430.782 692.887 443.361C696.161 448.723 698.768 453.331 703.417 457.67C703.865 458.251 704.744 459.106 705.021 459.747C706.212 462.5 704.924 468.236 705.103 471.432C705.242 473.913 705.9 476.485 706.503 478.887C693.375 491.087 683.518 504.545 677.257 521.489C676.108 524.598 674.669 527.912 674.183 531.191L674.68 531.829C671.882 541.413 668.647 551.726 663.991 560.57C651.618 584.071 623.597 612.873 600.526 625.558C570.155 642.259 536.373 648.632 501.892 646.997C495.44 653.375 489.708 660.438 483.355 666.911C462.375 688.286 440.459 708.568 416.17 726.145C414.97 725.208 414.111 724.784 412.586 724.589C409.971 724.253 406.888 723.791 404.54 722.531C402.808 721.601 401.13 720.067 400.404 718.207C397.652 711.163 398.55 702.317 396.36 695C394.051 687.287 388.685 681.164 386.207 672.751C388.737 665.341 389.005 657.401 392.885 650.569C409.012 634.004 425.235 617.316 442.005 601.406C448.716 602.869 455.906 602.578 462.735 602.551C494.938 602.427 522.913 596.919 553.595 587.137C561.011 584.773 568.689 582.576 575.848 579.528C568.022 580.488 560.486 582.634 552.742 584.02C537.858 586.683 522.138 587.826 507.017 587.468C454.999 586.238 401.49 570.663 358.444 541.096C339.478 528.068 323.048 512.976 307.194 496.384C326.374 499.052 345.949 499.497 365.281 499.535C377.669 499.56 390.076 499.56 402.438 498.646C374.011 493.451 353.491 487.815 327.671 473.994Q328.169 473.541 328.654 473.074C332.761 469.069 334.418 462.778 337.215 457.839C339.899 453.098 344.166 449.442 346.74 444.605C354.849 429.368 361.691 412.456 367.034 396.041C368.611 391.199 369.757 386.225 371.299 381.371C374.733 370.564 378.979 363.202 379.01 351.449Q379.667 350.575 380.35 349.721C383.134 346.295 385.849 345.695 390.016 345.24Z"/>
  <path transform="matrix(0.125, 0, 0, 0.125, 0, 0)" d="M651.123 443.698C658.364 441.409 664.449 441.718 671.273 445.233C676.682 448.019 681.125 451.996 682.915 458.006C684.641 463.798 683.367 470.294 680.364 475.446Q680.045 475.989 679.698 476.515Q679.351 477.04 678.977 477.548Q678.603 478.055 678.204 478.542Q677.805 479.029 677.381 479.495Q676.957 479.961 676.51 480.405Q676.063 480.848 675.593 481.268Q675.124 481.688 674.633 482.084Q674.143 482.479 673.632 482.848Q673.122 483.218 672.594 483.56Q672.065 483.903 671.52 484.218Q670.974 484.533 670.413 484.819Q669.852 485.106 669.277 485.363Q668.702 485.62 668.114 485.847Q667.527 486.075 666.928 486.271Q666.33 486.468 665.722 486.633Q665.115 486.799 664.499 486.933Q663.924 487.056 663.344 487.149Q662.764 487.243 662.18 487.307Q661.596 487.371 661.009 487.405Q660.422 487.439 659.835 487.443Q659.247 487.447 658.66 487.422Q658.073 487.396 657.488 487.341Q656.903 487.285 656.321 487.2Q655.74 487.115 655.164 487Q654.587 486.886 654.018 486.742Q653.448 486.598 652.886 486.426Q652.324 486.253 651.772 486.052Q651.22 485.851 650.678 485.623Q650.137 485.394 649.608 485.138Q649.079 484.882 648.564 484.599Q648.049 484.317 647.548 484.009Q647.048 483.7 646.564 483.367Q646.059 483.015 645.574 482.637Q645.088 482.26 644.622 481.858Q644.156 481.456 643.711 481.03Q643.267 480.605 642.845 480.157Q642.422 479.71 642.024 479.241Q641.625 478.772 641.251 478.284Q640.877 477.795 640.528 477.288Q640.18 476.781 639.858 476.257Q639.536 475.733 639.241 475.193Q638.946 474.653 638.679 474.098Q638.413 473.543 638.175 472.976Q637.937 472.408 637.729 471.83Q637.52 471.251 637.342 470.662Q637.163 470.073 637.015 469.476Q636.867 468.878 636.75 468.274Q636.633 467.67 636.547 467.061C636.249 465.015 636.419 462.934 636.553 460.881C636.941 459.538 637.329 458.185 637.822 456.876C640.329 450.215 644.839 446.519 651.123 443.698Z"/>
  <path fill="#F3F1F5" transform="matrix(0.125, 0, 0, 0.125, 0, 0)" d="M650.664 451.479C651.283 451.465 651.891 451.452 652.509 451.488C655.211 451.648 657.943 452.749 659.671 454.894C660.93 456.459 661.508 458.394 661.172 460.387C660.657 463.439 658.589 465.335 656.123 466.96C654.782 467.004 653.344 467.016 652.024 466.769C650.141 466.417 648.188 465.516 647.114 463.859C645.281 461.03 645.901 458.357 646.702 455.31C647.988 454.002 649.342 452.751 650.664 451.479Z"/>
</svg>
